<svg width="15" height="15" viewBox="0 0 15 15" fill="none" xmlns="http://www.w3.org/2000/svg">
<g clip-path="url(#clip0_2_43)">
<path d="M7.32899 0.234375C3.40684 0.234375 0.229034 3.48633 0.229034 7.5C0.229034 11.5137 3.40684 14.7656 7.32899 14.7656C11.2512 14.7656 14.429 11.5137 14.429 7.5C14.429 3.48633 11.2512 0.234375 7.32899 0.234375ZM3.54998 8.67188C3.36103 8.67188 3.20644 8.51367 3.20644 8.32031V6.67969C3.20644 6.48633 3.36103 6.32812 3.54998 6.32812H11.108C11.297 6.32812 11.4516 6.48633 11.4516 6.67969V8.32031C11.4516 8.51367 11.297 8.67188 11.108 8.67188H3.54998Z" fill="#FF0000" fill-opacity="0.6"/>
</g>
<defs>
<clipPath id="clip0_2_43">
<rect width="14.658" height="15" fill="white"/>
</clipPath>
</defs>
</svg>
