<svg width="15" height="15" viewBox="0 0 15 15" fill="none" xmlns="http://www.w3.org/2000/svg">
<circle cx="7.5" cy="7.5" r="7.5" fill="#1C1C1C"/>
<path d="M3.21403 12L4.06011 12C4.08911 12 4.11781 11.9942 4.14448 11.9828C4.17115 11.9714 4.19522 11.9547 4.21525 11.9337C4.23527 11.9127 4.25083 11.8879 4.26097 11.8607C4.27111 11.8335 4.27563 11.8045 4.27426 11.7755L4.20287 10.2977C4.61791 10.7871 5.13452 11.1801 5.71676 11.4494C6.299 11.7187 6.93289 11.8578 7.57433 11.8571C10.0132 11.8571 12.0019 9.86553 12.0001 7.42517C11.9983 4.98087 10.0174 2.99998 7.57433 2.99997C6.4784 2.99843 5.42117 3.40528 4.60869 4.14123C4.58699 4.16066 4.56947 4.18433 4.55722 4.21077C4.54497 4.23721 4.53824 4.26587 4.53743 4.29501C4.53663 4.32414 4.54178 4.35313 4.55256 4.38021C4.56334 4.40729 4.57952 4.43188 4.60013 4.45248L5.20689 5.05962C5.24529 5.09804 5.29684 5.12042 5.35111 5.12225C5.40538 5.12407 5.45831 5.1052 5.4992 5.06945C5.97864 4.64737 6.57526 4.38154 7.20953 4.30741C7.84381 4.23329 8.48559 4.35438 9.04933 4.65454C9.61307 4.9547 10.072 5.41967 10.3649 5.98747C10.6578 6.55528 10.7708 7.19893 10.6888 7.83262C10.6068 8.46632 10.3337 9.05995 9.90594 9.53438C9.47817 10.0088 8.91604 10.3415 8.29449 10.4881C7.67294 10.6347 7.0215 10.5882 6.42701 10.3549C5.83252 10.1216 5.32323 9.71248 4.96704 9.18213L6.77894 9.2691C6.8079 9.27048 6.83685 9.26595 6.86401 9.2558C6.89118 9.24565 6.91601 9.23009 6.93698 9.21005C6.95796 9.19001 6.97465 9.16592 6.98604 9.13924C6.99743 9.11255 7.00329 9.08383 7.00326 9.05481L7.00326 8.2082C7.00326 8.15137 6.9807 8.09687 6.94054 8.05668C6.90037 8.01649 6.8459 7.99392 6.78911 7.99392L3.21403 7.99392C3.15723 7.99392 3.10276 8.01649 3.0626 8.05668C3.02244 8.09687 2.99988 8.15137 2.99988 8.2082L2.99988 11.7857C2.99988 11.8425 3.02244 11.897 3.0626 11.9372C3.10276 11.9774 3.15723 12 3.21403 12Z" fill="white"/>
</svg>
