<svg width="80" height="34" viewBox="0 0 80 34" fill="none" xmlns="http://www.w3.org/2000/svg">
<path d="M80 17C80 26.3888 72.3888 34 63 34L17 34C7.61116 34 -2.86102e-06 26.3888 -2.86102e-06 17C-2.86102e-06 7.61116 7.61116 -1.78814e-06 17 -1.78814e-06L63 -1.78814e-06C72.3888 -1.78814e-06 80 7.61116 80 17Z" fill="#0E0E0E"/>
<path d="M76.5 17C76.5 25.2842 69.7843 32 61.5 32C53.2157 32 46.5 25.2842 46.5 17C46.5 8.71571 53.2157 1.99998 61.5 1.99998C69.7843 1.99998 76.5 8.71571 76.5 17Z" fill="#3071D9"/>
</svg>
